<?xml version="1.0" encoding="UTF-8" standalone="no"?>
<!-- Created with Inkscape (http://www.inkscape.org/) -->

<svg
   xmlns:dc="http://purl.org/dc/elements/1.1/"
   xmlns:cc="http://creativecommons.org/ns#"
   xmlns:rdf="http://www.w3.org/1999/02/22-rdf-syntax-ns#"
   xmlns:svg="http://www.w3.org/2000/svg"
   xmlns="http://www.w3.org/2000/svg"
   xmlns:sodipodi="http://sodipodi.sourceforge.net/DTD/sodipodi-0.dtd"
   xmlns:inkscape="http://www.inkscape.org/namespaces/inkscape"
   width="156"
   height="156"
   id="svg2"
   version="1.1"
   inkscape:version="0.48.4 r9939"
   sodipodi:docname="New document 1">
  <defs
     id="defs4" />
  <sodipodi:namedview
     id="base"
     pagecolor="#ffffff"
     bordercolor="#666666"
     borderopacity="1.0"
     inkscape:pageopacity="0.0"
     inkscape:pageshadow="2"
     inkscape:zoom="1.979899"
     inkscape:cx="143.39769"
     inkscape:cy="-14.574254"
     inkscape:document-units="px"
     inkscape:current-layer="layer1"
     showgrid="false"
     fit-margin-top="0"
     fit-margin-left="0"
     fit-margin-right="0"
     fit-margin-bottom="0"
     inkscape:window-width="1920"
     inkscape:window-height="1020"
     inkscape:window-x="0"
     inkscape:window-y="0"
     inkscape:window-maximized="1" />
  <metadata
     id="metadata7">
    <rdf:RDF>
      <cc:Work
         rdf:about="">
        <dc:format>image/svg+xml</dc:format>
        <dc:type
           rdf:resource="http://purl.org/dc/dcmitype/StillImage" />
        <dc:title></dc:title>
      </cc:Work>
    </rdf:RDF>
  </metadata>
  <g
     inkscape:label="Layer 1"
     inkscape:groupmode="layer"
     id="layer1"
     transform="translate(-230.57143,-460.07648)">
    <g
       id="g3058"
       transform="translate(-2.4999996,-2.1428572)">
      <path
         style="fill:#fbfbfb"
         d="m 233.07143,539.50504 0,-78 78,0 78,0 0,78 0,78 -78,0 -78,0 0,-78 z"
         id="path3078"
         inkscape:connector-curvature="0" />
      <path
         style="fill:#e7e7e7"
         d="m 247.57143,612.01747 c -4.7306,-1.6918 -8.10076,-5.26725 -9.20345,-9.76408 -0.4381,-1.78659 -0.57155,-30.24835 -0.29655,-63.24835 0.48393,-58.07141 0.56542,-60.11136 2.53538,-63.46461 1.11947,-1.90554 3.59447,-4.38054 5.5,-5.50001 3.38321,-1.98755 4.90969,-2.03538 64.96462,-2.03538 56.96009,0 61.73922,0.13072 64.74058,1.77081 3.61481,1.9753 5.90125,4.99353 7.19187,9.49365 0.47477,1.65542 1.02115,29.94813 1.21419,62.87269 l 0.35099,59.86285 -2.34536,3.77424 c -4.6924,7.55121 -1.40233,7.19944 -69.65227,7.44723 -50.78784,0.18439 -61.66965,-0.018 -65,-1.20904 z"
         id="path3076"
         inkscape:connector-curvature="0" />
      <path
         style="fill:#d1d1d1"
         d="m 250.01303,610.57209 c -4.60733,-1.42556 -6.89659,-3.07933 -8.46735,-6.11685 -1.35572,-2.62167 -1.51117,-10.60954 -1.26035,-64.76538 0.31836,-68.74113 -0.0585,-65.13256 7.15959,-68.55776 3.19442,-1.51586 9.26641,-1.64647 65.05611,-1.39948 l 61.53284,0.27242 3.26648,3.26693 3.26647,3.26692 0.66388,15.73308 c 0.36514,8.65319 0.70368,36.79292 0.75231,62.53273 0.0976,51.67539 0.17895,50.95896 -6.17851,54.43341 -2.97833,1.62771 -7.96064,1.78106 -63.23307,1.94625 -33,0.0986 -61.15128,-0.17689 -62.5584,-0.61227 z"
         id="path3074"
         inkscape:connector-curvature="0" />
      <path
         style="fill:#a7a7a7"
         d="m 250.32759,608.58016 c -3.7207,-0.94055 -5.89558,-2.53285 -7.46505,-5.46543 -0.77215,-1.44277 -1.0347,-20.23175 -0.88151,-63.08224 0.19981,-55.89182 0.36436,-61.27991 1.95542,-64.02745 3.21021,-5.54361 3.77234,-5.58638 69.3875,-5.27987 l 59.91258,0.27987 2.75381,3.08263 c 2.70486,3.02784 2.7656,3.38168 3.41745,19.90971 0.365,9.2549 0.66364,37.02756 0.66364,61.71703 0,48.2656 -0.074,49.00418 -5.16469,51.51165 -2.80627,1.38227 -119.4521,2.65014 -124.57915,1.3541 z m 83.30271,-91.52538 c 1.87274,-1.39917 1.86131,-1.43015 -0.32445,-0.8793 -1.24608,0.31404 -2.51013,0.96666 -2.80902,1.45027 -0.84582,1.36855 0.98367,1.03519 3.13347,-0.57097 z"
         id="path3072"
         inkscape:connector-curvature="0" />
      <path
         style="fill:#979797"
         d="m 247.2158,605.8952 c -3.15732,-2.21361 -5.26765,-7.52378 -4.50516,-11.33623 0.33775,-1.68874 0.6696,-28.75516 0.73744,-60.14759 l 0.12335,-57.07715 2.80576,-2.41459 2.80577,-2.4146 61.76992,0 61.76992,0 2.42432,2.57999 2.42431,2.57998 0.27876,62.21869 0.27875,62.21868 -2.60884,2.45133 -2.60885,2.45133 -61.66991,0.27085 c -55.98889,0.24591 -61.88691,0.11872 -64.02554,-1.38069 z m 101.22876,-2.05823 c 9.43449,-0.84366 6.47221,-2.17687 -6.61619,-2.97769 -9.07102,-0.55502 -10.52296,-0.89229 -11.3306,-2.63198 -0.50949,-1.09747 -1.37634,-1.97922 -1.92634,-1.95944 -2.66599,0.0958 -20.3224,7.71553 -19.80782,8.54813 0.57945,0.93757 24.98041,0.33555 39.68095,-0.97902 z m 13.02637,-16.34164 3.1005,-3.17225 -7.25,0.37367 c -3.9875,0.20552 -7.25,0.0125 -7.25,-0.42889 0,-0.44141 1.13447,-2.59967 2.52103,-4.79614 l 2.52104,-3.99358 -5.27104,3.69191 c -6.95739,4.87305 -9.77103,7.42569 -9.77103,8.86464 0,1.93397 6.08946,3.41183 12.3995,3.00927 5.05346,-0.3224 6.34413,-0.8313 9,-3.54863 z M 314.67417,558.4553 c 4.93234,-2.3877 13.39726,-12.1365 13.39726,-15.42922 0,-1.91769 -0.68381,-2.34292 -4.63957,-2.88512 -2.55177,-0.34975 -6.36093,-0.63592 -8.46482,-0.63592 -5.08135,0 -5.97175,-1.82266 -4.94295,-10.11828 1.00516,-8.10501 2.80831,-11.64525 10.13197,-19.89269 4.02918,-4.53741 7.77218,-7.53189 12.34853,-9.8791 3.61176,-1.85247 6.56684,-3.76004 6.56684,-4.23903 0,-1.54673 -3.41873,-0.91357 -6.5,1.20382 -1.65,1.13385 -6.36917,3.62889 -10.48705,5.54454 -9.93022,4.61958 -20.74964,15.44732 -24.0395,24.058 -4.21155,11.02305 -3.64093,25.66188 1.24229,31.86988 2.49266,3.1689 9.30499,3.34738 15.387,0.40312 z m 20.95613,-41.41846 c 1.8705,-1.41477 1.84803,-1.46935 -0.61774,-1.5 -1.40738,-0.0175 -3.43238,0.62889 -4.5,1.4364 -1.8705,1.41477 -1.84803,1.46935 0.61774,1.5 1.40738,0.0175 3.43238,-0.62889 4.5,-1.4364 z"
         id="path3070"
         inkscape:connector-curvature="0" />
      <path
         style="fill:#888888"
         d="m 246.6315,604.15602 c -1.88184,-1.88184 -2.56007,-3.60561 -2.56007,-6.5066 0,-3.62566 0.57725,-4.46532 7.09977,-10.32718 l 7.09977,-6.38065 -1.18716,-9.46827 c -0.88401,-7.05044 -0.9093,-11.9497 -0.099,-19.18552 1.2429,-11.09929 2.72948,-16.02026 8.24188,-27.28276 l 3.91558,-8 -4.28541,4.57988 c -2.35697,2.51893 -4.95125,5.89393 -5.76508,7.5 -3.226,6.36648 -6.02327,9.20165 -9.47639,9.60478 -3.09262,0.36105 -3.42544,0.13708 -3.9306,-2.64511 -0.30355,-1.67175 -0.84832,-15.18955 -1.2106,-30.03955 -0.65383,-26.8005 -0.64243,-27.02032 1.54187,-29.75 l 2.20056,-2.75 61.88846,0 61.88847,0 2.03895,2.18856 c 1.82742,1.9615 2.03909,3.49183 2.04024,14.75 7e-4,6.90879 -0.5302,16.36478 -1.17978,21.01331 l -1.18106,8.45188 -1.74272,-4.95188 c -0.95849,-2.72353 -1.77759,-6.38646 -1.82022,-8.13985 -0.11538,-4.7463 -12.60025,-17.3039 -19.86641,-19.98216 -5.24329,-1.93263 -5.27133,-1.96537 -3.25,-3.79464 1.1214,-1.01486 2.03891,-2.48525 2.03891,-3.26753 0,-0.84979 -2.11333,0.35479 -5.25,2.99244 -2.8875,2.42812 -9.3,6.81518 -14.25,9.74902 -12.27174,7.27339 -27.22936,22.04968 -31.44576,31.06455 -6.30607,13.48269 -6.25519,29.87919 0.11247,36.24686 2.71783,2.71783 3.36158,2.90472 8.26277,2.39887 2.92342,-0.30172 7.09093,-1.45444 9.26113,-2.56159 7.11469,-3.62965 15.22363,-14.61181 13.70707,-18.56388 -0.75812,-1.97564 -3.44116,-2.8027 -11.39768,-3.51338 l -6.5,-0.58058 -0.29802,-4.58415 c -0.4605,-7.08349 2.8752,-14.61951 9.83128,-22.21085 19.95737,-21.77995 42.05005,-16.6069 49.56117,11.60485 5.20866,19.56369 -4.3916,40.42849 -28.2896,61.48347 -4.50734,3.97113 -8.49159,7.69985 -8.85388,8.28604 -1.05011,1.69911 -15.14087,7.87305 -24.95095,10.93239 -8.49009,2.64769 -10.42717,2.84615 -34.18993,3.503 l -25.18993,0.6963 -2.56007,-2.56007 z m 28.43993,-0.65098 c -0.825,-0.53316 -2.85,-0.96937 -4.5,-0.96937 -2.30174,0 -2.65087,0.22562 -1.5,0.96937 0.825,0.53316 2.85,0.96937 4.5,0.96937 2.30174,0 2.65087,-0.22562 1.5,-0.96937 z m 59.04966,-85.52568 c 2.76491,-1.42979 4.00044,-3.47432 2.09956,-3.47432 -2.42673,0 -7.14922,2.37658 -7.14922,3.59783 0,1.80654 1.38276,1.77272 5.04966,-0.12351 z m -37.26587,-23.79715 c 3.45608,-2.16861 6.07028,-4.15644 5.80933,-4.41739 -0.73146,-0.73145 -10.67284,5.25563 -14.59312,8.78853 -3.30541,2.97879 -3.33321,3.05457 -0.5,1.36297 1.65,-0.98515 5.8277,-3.5655 9.28379,-5.73411 z m 30.71621,-14.46958 c 2.2,-1.16556 3.45438,-2.13909 2.78751,-2.16339 -1.87603,-0.0684 -11.67669,3.78118 -13.84733,5.43903 -1.72988,1.32122 -1.45242,1.33886 2.55982,0.1627 2.475,-0.72553 6.3,-2.27278 8.5,-3.43834 z"
         id="path3068"
         inkscape:connector-curvature="0" />
      <path
         style="fill:#717171"
         d="m 283.07143,603.56187 c -7.10203,-0.8156 -10.69131,-2.80739 -16.29948,-9.04502 -7.15234,-7.95513 -8.21696,-12.28797 -8.1113,-33.01181 0.0785,-15.39318 0.3594,-18.28254 2.33335,-24 7.85532,-22.75255 26.32618,-39.56045 58.02293,-52.79902 13.79225,-5.76052 27.08641,-10.2993 28.18255,-9.62184 2.82731,1.74737 -1.93659,6.24456 -17.12805,16.16916 -25.99512,16.98263 -36.99142,32.38429 -37.17206,52.06406 -0.0751,8.17832 1.66906,14.36758 4.90386,17.402 1.93997,1.81979 3.48945,2.25987 7.60239,2.15919 6.67742,-0.16345 11.47104,-2.23106 17.01032,-7.33699 7.26547,-6.69708 9.90452,-14.76255 5.58649,-17.07349 -1.13795,-0.60901 -4.85045,-1.25404 -8.25,-1.43341 -3.39955,-0.17936 -6.5185,-0.37192 -6.931,-0.42789 -0.4125,-0.056 -0.75,-2.5049 -0.75,-5.44205 0,-15.607 19.61139,-34.68596 34.39386,-33.46008 10.32215,0.85599 16.58393,6.49287 21.73144,19.56274 3.37118,8.55962 3.28239,23.42843 -0.18957,31.74599 -4.17019,9.99025 -9.71059,17.40078 -22.4663,30.04967 -9.76076,9.67902 -13.73063,12.87524 -20.12124,16.2 -13.10828,6.81968 -28.67116,9.86947 -42.34819,8.29879 z m 52.04966,-85.58251 c 3.41853,-1.76779 3.86093,-3.47432 0.90068,-3.47432 -2.57082,0 -7.95034,2.72394 -7.95034,4.02568 0,1.46335 3.71561,1.17275 7.04966,-0.55136 z"
         id="path3066"
         inkscape:connector-curvature="0" />
      <path
         style="fill:#4f4f4f"
         d="m 281.07143,602.46939 c -8.54052,-1.78767 -17.34506,-10.63688 -20.19928,-20.30177 -1.67156,-5.6602 -1.58377,-33.51673 0.12815,-40.66258 5.22882,-21.82596 26.09925,-42.1999 56.35012,-55.0096 14.64071,-6.19959 27.48263,-10.56211 28.39776,-9.64698 1.26487,1.26487 -4.23404,5.93847 -17.34212,14.73933 -19.33988,12.98493 -28.40045,22.73176 -33.4718,36.00701 -4.24536,11.11305 -3.4027,27.87763 1.67673,33.35843 2.01427,2.17343 3.22463,2.55036 8.16269,2.54204 7.45846,-0.0126 14.45266,-3.21844 19.8287,-9.08871 9.97835,-10.89566 8.03896,-17.90152 -4.95556,-17.90152 -6.67587,0 -8.07622,-1.41669 -7.17174,-7.25542 1.60365,-10.3521 11.30053,-22.92667 21.66138,-28.08969 10.47859,-5.22171 22.02724,-2.74149 28.05952,6.02614 5.50731,8.0046 7.33944,14.55756 7.35846,26.31897 0.0158,9.74828 -0.21124,10.98178 -3.1709,17.22956 -4.21869,8.90552 -7.71624,13.85898 -16.19942,22.9427 -13.71649,14.68748 -27.27663,23.75383 -40.69927,27.21166 -7.59284,1.956 -22.62469,2.79211 -28.41342,1.58043 z m 55.59692,-85.04478 c 1.60596,-1.33283 1.88533,-3.91957 0.42332,-3.91957 -0.53887,0 -2.78887,0.72386 -5,1.60858 -3.67567,1.47071 -4.92599,3.15234 -3.44497,4.63336 0.75267,0.75266 6.22567,-0.83185 8.02165,-2.32237 z"
         id="path3064"
         inkscape:connector-curvature="0" />
      <path
         style="fill:#2d2d2d"
         d="m 279.25405,600.6751 c -5.92183,-2.12528 -11.14701,-6.62908 -14.73343,-12.69939 -5.22199,-8.83862 -5.48968,-37.86989 -0.48061,-52.12161 6.98064,-19.86117 24.95468,-35.76125 55.03142,-48.68152 18.84192,-8.09405 25.59087,-10.05064 23.60942,-6.84459 -0.32496,0.52581 -6.78253,5.14864 -14.35013,10.27295 -17.42736,11.80073 -25.83214,20.1963 -31.24531,31.21107 -7.64484,15.55579 -8.02541,32.18726 -0.91081,39.80348 2.85799,3.05948 3.14992,3.14013 9.67188,2.67196 8.26068,-0.59298 13.40966,-3.0894 19.09616,-9.25851 7.33888,-7.96175 8.8562,-14.9172 3.86698,-17.72639 -1.231,-0.69312 -5.16319,-1.49361 -8.73819,-1.77887 l -6.5,-0.51864 0.12964,-5.14353 c 0.16045,-6.36592 3.77478,-13.38012 10.51937,-20.4146 12.67329,-13.21799 30.81161,-13.39706 38.44042,-0.37949 6.77979,11.56885 8.45207,27.85741 3.97724,38.73985 -4.22573,10.27665 -8.84234,16.82353 -19.56667,27.74775 -18.02666,18.36267 -32.00417,25.4523 -52.24251,26.49828 -8.49975,0.4393 -11.16869,0.20312 -15.57488,-1.3782 z m 56.56738,-82.1591 c 4.0527,-2.47098 4.30648,-5.0124 0.5,-5.00722 -2.85626,0.004 -9.25,3.33201 -9.25,4.81489 0,2.78737 4.33745,2.88271 8.75,0.19233 z"
         id="path3062"
         inkscape:connector-curvature="0" />
      <path
         style="fill:#020202"
         d="m 283.25567,600.43639 c -7.58671,-1.49337 -15.75105,-8.19886 -18.70004,-15.35862 -1.92574,-4.67545 -3.81051,-23.58428 -2.654,-26.62612 0.53218,-1.39974 1.29324,-5.67285 1.69123,-9.4958 0.398,-3.82294 1.52101,-9.07712 2.49558,-11.67594 3.48038,-9.28091 15.25821,-23.12198 27.48299,-32.29745 3.99312,-2.9971 34.37827,-18.47742 36.26791,-18.47742 1.30545,0 -2.86283,3.63386 -9.67517,8.43471 -14.0153,9.87698 -22.55464,20.27545 -27.36942,33.32811 -1.63665,4.43689 -2.12842,8.11693 -2.1698,16.23718 -0.0473,9.28106 0.22234,10.98143 2.32274,14.64701 2.85861,4.9888 5.53603,6.35615 12.42079,6.34322 9.82964,-0.0185 20.48549,-6.89936 25.1357,-16.23112 3.1774,-6.37622 3.19818,-7.91378 0.15481,-11.45335 -2.09339,-2.43468 -3.31675,-2.87189 -9.25,-3.30576 -6.45319,-0.47189 -6.85442,-0.64498 -7.13749,-3.07905 -0.93118,-8.00718 9.86731,-23.28403 20.0425,-28.35454 6.25438,-3.11669 14.50263,-3.4581 19.68633,-0.81486 10.80287,5.50855 17.26937,27.30356 12.65244,42.64444 -2.44204,8.11429 -9.56858,18.69411 -19.52324,28.98356 -16.75566,17.31919 -30.19031,24.7017 -48.45461,26.62644 -10.21853,1.07686 -9.55299,1.08008 -15.41925,-0.0746 z m 52.91788,-81.22118 c 3.94177,-2.65637 4.55858,-6.0451 1.18757,-6.52452 -3.48188,-0.49519 -11.28969,3.37179 -11.28969,5.59145 0,1.03926 0.3,2.18957 0.66667,2.55623 1.39709,1.3971 6.17278,0.57554 9.43545,-1.62316 z"
         id="path3060"
         inkscape:connector-curvature="0" />
    </g>
  </g>
</svg>
